<svg xmlns="http://www.w3.org/2000/svg" xmlns:xlink="http://www.w3.org/1999/xlink" width="507.655" height="46.442" viewBox="0 0 507.655 46.442">
    <defs>
      <linearGradient id="linear-gradient" x1="0.002" y1="0.499" x2="1.001" y2="0.499" gradientUnits="objectBoundingBox">
        <stop offset="0" stop-color="#66ff78"/>
        <stop offset="1" stop-color="#00fff2"/>
      </linearGradient>
      <linearGradient id="linear-gradient-2" x1="0" y1="0.499" x2="0.999" y2="0.499" xlink:href="#linear-gradient"/>
      <linearGradient id="linear-gradient-3" x1="0.019" y1="0.503" x2="0.999" y2="0.503" xlink:href="#linear-gradient"/>
      <linearGradient id="linear-gradient-4" x1="0" y1="0.5" x2="1" y2="0.5" xlink:href="#linear-gradient"/>
      <linearGradient id="linear-gradient-5" x1="-0.002" y1="0.501" x2="0.999" y2="0.501" xlink:href="#linear-gradient"/>
      <linearGradient id="linear-gradient-6" x1="0" y1="0.5" x2="1.002" y2="0.5" xlink:href="#linear-gradient"/>
      <linearGradient id="linear-gradient-7" x1="0.01" y1="0.5" x2="0.997" y2="0.5" xlink:href="#linear-gradient"/>
      <linearGradient id="linear-gradient-8" x1="0.041" y1="0.527" x2="1.039" y2="0.527" xlink:href="#linear-gradient"/>
      <linearGradient id="linear-gradient-9" x1="0" y1="0.5" x2="1" y2="0.5" xlink:href="#linear-gradient"/>
      <linearGradient id="linear-gradient-10" x1="-0.418" y1="0.504" x2="3.099" y2="0.489" gradientUnits="objectBoundingBox">
        <stop offset="0" stop-color="#00ffb0"/>
        <stop offset="1" stop-color="#00dbff"/>
      </linearGradient>
      <linearGradient id="linear-gradient-11" x1="-2.081" y1="0.478" x2="1.401" y2="0.508" xlink:href="#linear-gradient-10"/>
      <linearGradient id="linear-gradient-12" x1="0" y1="0.5" x2="1" y2="0.5" xlink:href="#linear-gradient-10"/>
    </defs>
    <g id="Gruppe_78" data-name="Gruppe 78" transform="translate(-236.053 -1409.667)">
      <g id="Gruppe_75" data-name="Gruppe 75" transform="translate(334.97 1416.734)" opacity="0.75">
        <path id="Pfad_18" data-name="Pfad 18" d="M755.26,1461.134v15.84h-3.207l-.9-3.4a10.634,10.634,0,0,1-8.8,3.911c-8.135,0-13.924-6.062-13.924-14.2,0-8.1,5.789-14.159,13.924-14.159a13.471,13.471,0,0,1,11.029,5.28l-5.554,3.676a6.75,6.75,0,0,0-5.475-2.542c-4.772,0-7.236,3.872-7.236,7.745s2.464,7.744,7.236,7.744a6.519,6.519,0,0,0,6.688-4.576h-6.688v-5.319Z" transform="translate(-728.43 -1448.266)" fill="#1c1c1c"/>
        <path id="Pfad_19" data-name="Pfad 19" d="M897.074,1499.021H882.759c.664,2.307,2.542,3.363,4.967,3.363a5.363,5.363,0,0,0,4.067-1.721l4.459,2.66a9.92,9.92,0,0,1-8.526,4.185c-6.688,0-11.147-4.224-11.147-10.4a10.243,10.243,0,0,1,10.248-10.4C892.693,1486.7,897.856,1490.69,897.074,1499.021Zm-5.75-3.833a3.994,3.994,0,0,0-4.3-3.364,4.275,4.275,0,0,0-4.263,3.364Z" transform="translate(-846.816 -1478.292)" fill="#1c1c1c"/>
        <path id="Pfad_20" data-name="Pfad 20" d="M1013.8,1494.6V1507h-6.375v-10.677a3.176,3.176,0,1,0-6.336,0V1507h-6.335v-19.83h6.335v1.839a6.894,6.894,0,0,1,5.437-2.308C1011.452,1486.7,1013.8,1490.612,1013.8,1494.6Z" transform="translate(-941.249 -1478.292)" fill="#1c1c1c"/>
        <path id="Pfad_21" data-name="Pfad 21" d="M1125.624,1499.021h-14.315c.664,2.307,2.542,3.363,4.967,3.363a5.363,5.363,0,0,0,4.067-1.721l4.459,2.66a9.919,9.919,0,0,1-8.526,4.185c-6.688,0-11.147-4.224-11.147-10.4a10.242,10.242,0,0,1,10.247-10.4C1121.243,1486.7,1126.405,1490.69,1125.624,1499.021Zm-5.75-3.833a3.993,3.993,0,0,0-4.3-3.364,4.275,4.275,0,0,0-4.263,3.364Z" transform="translate(-1029.452 -1478.292)" fill="#1c1c1c"/>
        <path id="Pfad_22" data-name="Pfad 22" d="M1235.894,1486.7v6.805c-5.632-.86-6.258,2.347-6.258,5.671V1507H1223.3v-19.83h6.336v3.012A7.554,7.554,0,0,1,1235.894,1486.7Z" transform="translate(-1123.883 -1478.292)" fill="#1c1c1c"/>
        <path id="Pfad_23" data-name="Pfad 23" d="M1310.365,1494.68V1507h-6.336v-1.838c-1.056,1.525-3.4,2.346-5.436,2.346-2.66,0-6.767-1.017-6.767-5.827,0-6.571,8.527-6.571,9.856-6.571h2.347v-.078a2.9,2.9,0,0,0-3.246-3.207,6.209,6.209,0,0,0-3.755,1.251l-4.146-2.815a11.792,11.792,0,0,1,8.917-3.559C1308.135,1486.7,1310.365,1489.947,1310.365,1494.68Zm-6.336,3.6h-.508c-3.168,0-5.28.587-5.28,2.582,0,1.447,1.173,1.994,2.542,1.994a4.293,4.293,0,0,0,3.246-1.408Z" transform="translate(-1178.642 -1478.292)" fill="#1c1c1c"/>
        <path id="Pfad_24" data-name="Pfad 24" d="M1406.534,1477.788v6.258c0,2.073.743,3.129,2.7,3.129a8.471,8.471,0,0,0,1.213-.117v5.319a8.136,8.136,0,0,1-2.738.352c-6.1,0-7.51-4.146-7.51-8.018v-6.923h-2.464v-5.241h2.464V1468.4h6.336v4.146h3.911v5.241Z" transform="translate(-1263.273 -1463.669)" fill="#1c1c1c"/>
        <path id="Pfad_25" data-name="Pfad 25" d="M1480.664,1448.168a3.325,3.325,0,1,1,3.324,3.363A3.355,3.355,0,0,1,1480.664,1448.168Zm.157,5.554h6.335v19.829h-6.335Z" transform="translate(-1329.543 -1444.844)" fill="#1c1c1c"/>
        <path id="Pfad_26" data-name="Pfad 26" d="M1549.827,1497.1a10.641,10.641,0,1,1-10.638-10.4A10.239,10.239,0,0,1,1549.827,1497.1Zm-6.375,0a4.244,4.244,0,1,0-8.488,0,4.244,4.244,0,0,0,8.488,0Z" transform="translate(-1367.809 -1478.292)" fill="#1c1c1c"/>
        <path id="Pfad_27" data-name="Pfad 27" d="M1669.08,1494.6V1507H1662.7v-10.677a3.176,3.176,0,1,0-6.336,0V1507h-6.336v-19.83h6.336v1.839a6.894,6.894,0,0,1,5.437-2.308C1666.733,1486.7,1669.08,1490.612,1669.08,1494.6Z" transform="translate(-1464.886 -1478.292)" fill="#1c1c1c"/>
        <path id="Pfad_28" data-name="Pfad 28" d="M1775.986,1500.859c0,4.185-3.09,6.648-8.879,6.648-3.989,0-7.822-1.291-8.644-4.771l5.75-1.8c.235.782,1.017,1.6,2.816,1.6,1.33,0,2.387-.391,2.387-1.408,0-1.369-2.073-1.291-4.42-1.8-3.794-.86-5.867-2.229-5.867-6.1,0-4.146,3.559-6.531,8.526-6.531,3.4,0,6.767,1.682,7.627,5.045l-5.318,1.291a2.1,2.1,0,0,0-2.269-1.447c-1.252,0-2.425.352-2.425,1.447,0,1.29,2.151,1.369,3.715,1.682C1773.991,1495.775,1775.986,1497.222,1775.986,1500.859Z" transform="translate(-1551.533 -1478.292)" fill="#1c1c1c"/>
        <path id="Pfad_29" data-name="Pfad 29" d="M1883.218,1461.134v15.84h-3.208l-.9-3.4a10.632,10.632,0,0,1-8.8,3.911c-8.135,0-13.924-6.062-13.924-14.2,0-8.1,5.789-14.159,13.924-14.159a13.471,13.471,0,0,1,11.029,5.28l-5.554,3.676a6.748,6.748,0,0,0-5.475-2.542c-4.772,0-7.236,3.872-7.236,7.745s2.464,7.744,7.236,7.744a6.519,6.519,0,0,0,6.688-4.576h-6.687v-5.319Z" transform="translate(-1629.785 -1448.266)" fill="#1c1c1c"/>
        <path id="Pfad_30" data-name="Pfad 30" d="M2025.032,1499.021h-14.315c.665,2.307,2.542,3.363,4.967,3.363a5.363,5.363,0,0,0,4.067-1.721l4.459,2.66a9.919,9.919,0,0,1-8.526,4.185c-6.688,0-11.147-4.224-11.147-10.4a10.243,10.243,0,0,1,10.247-10.4C2020.651,1486.7,2025.813,1490.69,2025.032,1499.021Zm-5.749-3.833a3.994,3.994,0,0,0-4.3-3.364,4.275,4.275,0,0,0-4.263,3.364Z" transform="translate(-1748.172 -1478.292)" fill="#1c1c1c"/>
        <path id="Pfad_31" data-name="Pfad 31" d="M2132.442,1500.859c0,4.185-3.09,6.648-8.878,6.648-3.989,0-7.822-1.291-8.643-4.771l5.749-1.8c.234.782,1.017,1.6,2.816,1.6,1.33,0,2.386-.391,2.386-1.408,0-1.369-2.073-1.291-4.42-1.8-3.794-.86-5.867-2.229-5.867-6.1,0-4.146,3.559-6.531,8.526-6.531,3.4,0,6.767,1.682,7.626,5.045l-5.319,1.291a2.1,2.1,0,0,0-2.269-1.447c-1.251,0-2.425.352-2.425,1.447,0,1.29,2.152,1.369,3.716,1.682C2130.447,1495.775,2132.442,1497.222,2132.442,1500.859Z" transform="translate(-1836.379 -1478.292)" fill="#1c1c1c"/>
        <path id="Pfad_32" data-name="Pfad 32" d="M2225.089,1499.49l5.475,3.286a10.476,10.476,0,0,1-9.035,4.732,10.406,10.406,0,1,1,0-20.807,10.388,10.388,0,0,1,9.035,4.733l-5.475,3.285a4.25,4.25,0,1,0-3.56,6.61A4.211,4.211,0,0,0,2225.089,1499.49Z" transform="translate(-1913.07 -1478.292)" fill="#1c1c1c"/>
        <path id="Pfad_33" data-name="Pfad 33" d="M2340.52,1466.444v12.4h-6.375v-10.677a3.176,3.176,0,1,0-6.336,0v10.677h-6.335v-27.377h6.335v9.386a6.9,6.9,0,0,1,5.437-2.308C2338.212,1458.543,2340.52,1462.454,2340.52,1466.444Z" transform="translate(-2001.436 -1450.134)" fill="#1c1c1c"/>
        <path id="Pfad_34" data-name="Pfad 34" d="M2452.345,1499.021H2438.03c.665,2.307,2.542,3.363,4.968,3.363a5.362,5.362,0,0,0,4.067-1.721l4.459,2.66a9.919,9.919,0,0,1-8.526,4.185c-6.688,0-11.147-4.224-11.147-10.4a10.243,10.243,0,0,1,10.247-10.4C2447.964,1486.7,2453.126,1490.69,2452.345,1499.021Zm-5.75-3.833a3.993,3.993,0,0,0-4.3-3.364,4.276,4.276,0,0,0-4.263,3.364Z" transform="translate(-2089.639 -1478.292)" fill="#1c1c1c"/>
        <path id="Pfad_35" data-name="Pfad 35" d="M2569.069,1494.6V1507h-6.375v-10.677a3.176,3.176,0,1,0-6.336,0V1507h-6.336v-19.83h6.336v1.839a6.9,6.9,0,0,1,5.437-2.308C2566.722,1486.7,2569.069,1490.612,2569.069,1494.6Z" transform="translate(-2184.07 -1478.292)" fill="#1c1c1c"/>
        <path id="Pfad_36" data-name="Pfad 36" d="M2678.249,1478.842l-5.632-8.722v8.722h-6.375v-27.377h6.375v15.761l5.437-8.214h7.118l-6.609,9.387,7.119,10.443Z" transform="translate(-2276.943 -1450.134)" fill="#1c1c1c"/>
      </g>
      <g id="Gruppe_77" data-name="Gruppe 77" transform="translate(236.053 1409.667)">
        <path id="Pfad_37" data-name="Pfad 37" d="M402.6,1483.793l-.042-.046,0,0Z" transform="translate(-369.109 -1468.865)" fill="url(#linear-gradient)"/>
        <path id="Pfad_38" data-name="Pfad 38" d="M381.844,1467.751h0l.062.03Z" transform="translate(-352.555 -1456.082)" fill="url(#linear-gradient-2)"/>
        <path id="Pfad_39" data-name="Pfad 39" d="M416.011,1507.155l.005.019h0Z" transform="translate(-379.858 -1487.57)" fill="url(#linear-gradient-3)"/>
        <path id="Pfad_40" data-name="Pfad 40" d="M380.421,1467.1l.185.084h0Z" transform="translate(-351.418 -1455.561)" fill="url(#linear-gradient-4)"/>
        <path id="Pfad_41" data-name="Pfad 41" d="M399.6,1480.726l.061.06h0Z" transform="translate(-366.743 -1466.45)" fill="url(#linear-gradient-5)"/>
        <path id="Pfad_42" data-name="Pfad 42" d="M417.914,1516.576l.012.089h0C417.922,1516.636,417.918,1516.606,417.914,1516.576Z" transform="translate(-381.379 -1495.098)" fill="url(#linear-gradient-6)"/>
        <path id="Pfad_43" data-name="Pfad 43" d="M418.516,1523.146h0c0,.07.005.141.007.211C418.521,1523.287,418.519,1523.216,418.516,1523.146Z" transform="translate(-381.86 -1500.349)" fill="url(#linear-gradient-7)"/>
        <path id="Pfad_44" data-name="Pfad 44" d="M457.306,1504.5h0Z" transform="translate(-412.857 -1485.449)" fill="url(#linear-gradient-8)"/>
        <path id="Pfad_45" data-name="Pfad 45" d="M349.862,1510.7h0l3.941-3.941Z" transform="translate(-326.999 -1487.252)" fill="url(#linear-gradient-9)"/>
        <path id="Pfad_46" data-name="Pfad 46" d="M422.213,1616.856Z" transform="translate(-384.814 -1575.232)" fill="#fff"/>
        <g id="Gruppe_76" data-name="Gruppe 76">
          <path id="Pfad_47" data-name="Pfad 47" d="M314.613,1472.849h0c0-.028,0-.057,0-.085s0-.068-.005-.1h0q0-.036,0-.071h0c-.005-.078-.01-.157-.017-.235v0c0-.008,0-.015,0-.023s0,.015,0,.023q-.008-.1-.018-.2h0c0-.024-.005-.049-.008-.073v0c0-.01,0-.021,0-.031,0-.033-.007-.066-.01-.1h0c0-.026-.006-.052-.009-.078h0v0l-.013-.108,0-.014h0c0-.027-.007-.054-.011-.08-.007-.048-.013-.1-.02-.144q-.032-.216-.071-.429-.034-.183-.072-.364v0h0c-.014-.082-.029-.164-.044-.245.016.081.031.163.044.245-.014-.082-.029-.164-.044-.245h0l-.007-.037,0-.008h0c-.016-.08-.032-.159-.049-.237h0l0-.012-.005-.021h0c-.017-.077-.035-.154-.054-.23h0l0-.016h0q-.03-.119-.062-.236c-.024-.086-.048-.172-.074-.257s-.056-.181-.087-.271a10.922,10.922,0,0,0-1.1-2.313l-.062-.1h0l-.005-.008,0,.008,0-.008,0,0,0,0-.033-.051-.03-.046,0-.007h0l-.031-.047-.027-.041-.006-.01,0-.006-.027-.041-.005-.008-.03-.044-.024-.035-.006-.009-.017-.025-.006-.009,0-.006-.011-.015-.009-.012-.033-.047-.02-.029,0,0-.009-.012-.006-.008-.024-.033-.015-.021-.039-.054-.016-.022-.035-.047c-.047-.064-.1-.127-.143-.19l-.035-.045-.035-.045,0,0-.035-.045-.027-.034-.015-.019,0,0-.039-.049-.01-.012-.007-.009-.016-.02-.014-.017-.008-.01-.037-.045-.009-.011-.07-.083c-.05-.059-.1-.117-.149-.174-.09-.1-.18-.2-.271-.3l0,0-.007-.007.007.007-.009-.009-.147-.156h0l-.058-.06,0,0-.014-.014-.088-.091h0l-.066-.066h0l-.023-.023-.07-.07h0l-.068-.066-.116-.112-.089-.084-.047-.043q-.124-.116-.248-.226h0l-1.6,1.6h0l.008.007-.095.094-3.978,3.978,2.012-2.012-2.012,2.012-3.978,3.978h0l2.717,2.718-1.647-1.647,1.647,1.647,1.045,1.045-1.045-1.045,1.045,1.045,2.663-2.663.859-.859,1.25-1.25c.007.053.013.107.018.16,0-.033-.007-.067-.011-.1q0,.023.005.045c0,.035.008.07.011.105l0,.022v-.008c.006.066.012.132.017.2,0-.056-.009-.112-.014-.169,0,.021,0,.042.006.062,0,.036.006.071.008.107s.007.094.009.142c0-.047-.006-.094-.009-.142q.021.283.021.571a7.751,7.751,0,1,1-15.5,0c0-.049,0-.1,0-.148,0-.03,0-.059,0-.089a7.711,7.711,0,0,1,.787-3.177q.126-.257.271-.5l.027-.046.008-.014.024-.04.01-.017.016-.027.014-.023.022-.035.013-.021.027-.042.031-.049,0-.006.033-.05.028-.041.037-.054.012-.017.029-.041.033-.046.008-.012.009-.013.015-.021.011-.015,0-.005.028-.039.074-.1.076-.1.078-.1.079-.1.036-.042.015-.017.017-.021.022-.025.032-.036.04-.045,0,0,.036-.04,0-.005.005-.005.035-.038.04-.042,0,0,0,0,.039-.042.033-.035.011-.011.014-.014.027-.028.011-.011.034-.034.014-.013.023-.023.007-.007.041-.04.016-.016.015-.014.011-.011.005,0,.034-.032,0,0,.007-.007h0l.009-.008.007-.007,0,0,.053-.049.005,0,.012-.011.012-.011.029-.026.006,0,.017-.016.017-.015.012-.011.035-.03,0,0,.007-.006.011-.009.036-.031.095-.08.041-.034,0,0h0l.005,0,.024-.019.007-.006.012-.01.01-.008.039-.031.049-.038.049-.038.05-.037.1-.073.05-.036.051-.036.1-.071.052-.035.044-.029,0,0,0,0h0l.019-.012.013-.009.008,0,.012-.008h0l.008,0,.005,0,.039-.025.025-.015.018-.011,0,0,.006,0,.015-.01.033-.02,0,0,.009-.005.021-.013.042-.025.032-.019,0,0,.027-.016.027-.015.013-.008.041-.023h0l.027-.015.014-.008.014-.008.027-.015h0l.041-.022.041-.022h0l.111-.058h0l.009,0,.018-.01.028-.014h0l.057-.029.012-.006.046-.022.012-.006.048-.023.009,0h0q.1-.046.2-.088l.02-.009.009,0h0l.037-.016.015-.006.019-.008.029-.012.029-.012h0l.058-.024h0l.058-.023h0l.059-.023.03-.011.03-.011.03-.011.03-.011.03-.01.024-.009.044-.015.022-.008.03-.01.009,0,.013,0,.012,0q.115-.038.232-.073h0l.036-.011h0l.061-.017.061-.017.031-.008.086-.023.015,0,.084-.021h0l.031-.008.016,0,.058-.014.019,0,.031-.007c.083-.018.168-.036.252-.051l.063-.012.063-.011.032-.005.041-.007.055-.009.034,0,.029,0,.033,0,.064-.009.065-.008.058-.007.039,0,.13-.013.131-.011.049,0,.049,0,.049,0,.049,0,.042,0h.015l.042,0h.033l.066,0h.484l.043,0h.01l.042,0,.047,0h0l.085.005h.02l.036,0,.046,0h0l.045,0h0l.046,0,.046,0,.139.015.046.006.092.011.046.006.046.006.092.014.019,0,.071.012.091.016.09.017.039.008-.039-.008.047.01.122.025h0l3.845-3.845.307-.308.023-.023-.023.023.024-.024h0l.01-.01.008-.008h0q-.1-.052-.21-.1h0l-.1-.047h0q-.146-.068-.294-.132h-.008a12.962,12.962,0,0,0-5.155-1.062h-.368l-.107,0h-.022l-.055,0-.091,0-.091,0-.091.005-.061,0-.076.005-.091.007-.09.008-.14.013-.081.009-.139.015-.045.005-.045.005-.04.005h0l-.045.006-.072.01-.049.007-.085.012-.039.006-.066.01-.014,0h-.007l-.132.021-.036.006-.041.007-.043.007-.042.008-.125.023h0l-.044.008-.04.008-.047.009-.07.014-.049.01-.037.008h0l-.014,0-.022.005h-.005l-.016,0-.03.006-.037.009-.041.009-.041.009-.01,0-.013,0-.013,0h0l-.026.006-.13.031-.023.006-.019,0-.086.022h0l-.081.021-.081.022h0l-.036.01-.037.01-.124.035-.011,0-.015,0-.024.007-.008,0-.033.009-.062.019-.025.008-.009,0-.027.008-.053.016-.04.013h0l-.035.011-.047.015-.042.014-.042.014h0l-.079.027-.041.014-.052.018-.018.006h0l-.052.019-.041.015h0l-.014,0-.017.006-.01,0-.041.015-.082.03-.041.016-.007,0-.007,0-.011,0-.016.006-.041.015h0l-.057.022-.008,0-.057.022-.061.024-.06.025-.075.031-.075.031-.038.016-.037.016-.037.016-.037.016-.037.017-.037.016-.037.017-.037.017-.148.068-.039.019-.039.019-.039.019-.088.042-.029.014-.039.019-.039.019-.036.018-.024.012-.029.014-.18.093-.076.041-.038.02-.076.042-.075.042-.075.042-.075.043-.148.087-.037.022-.074.044-.073.045-.036.023,0,0-.054.034-.033.021-.054.034-.036.023-.108.071-.019.012-.008.005-.009.006-.036.024-.045.03-.044.03-.044.031-.044.03-.035.025-.007.005-.063.044-.009.007-.024.017q-.12.086-.238.174l-.032.024-.054.041-.036.027c-.063.049-.127.1-.189.148l-.032.026-.167.136-.029.024-.1.086-.033.028-.033.028-.032.028-.16.142-.032.029-.06.055-.066.061-.031.03-.031.029-.031.029-.031.03-.11.105-.028.027-.077.076-.022.022-.07.071-.028.028-.109.113-.027.028-.035.037-.035.038q-.106.114-.21.23l-.029.033-.1.119-.069.081.023-.027-.03.036-.12.144-.048.058-.026.032.019-.023c-.051.063-.1.126-.151.189a12.945,12.945,0,0,0-2.742,7.541q-.008.228-.008.457,0,.3.013.6c.006.124.013.247.022.369,0,.055.008.11.013.165h0q.015.175.035.348l0,.03a13.008,13.008,0,0,0,12.921,11.5h.307l.077,0h.153l.073,0,.041,0,.057,0,.057,0,.057,0,.057,0,.113-.008.113-.009.045,0,.024,0,.088-.008.024,0,.045,0,.056-.006.056-.006.049-.005.063-.008.078-.009.071-.009.037,0,.069-.01h.008l.034,0,.037-.005h.005l.143-.022c.123-.019.245-.04.367-.063l.068-.013h.007l.048-.009.008,0,.029-.006.059-.012.011,0,.056-.012.027-.006.026-.005.047-.01h.005l.03-.007h0l.024-.006.07-.016.011,0,.049-.011h0l.072-.017.055-.013.035-.009.042-.01.082-.021.071-.019h0l.071-.019.063-.017.008,0,.037-.01.019-.005.038-.011.006,0,.038-.011.008,0,.062-.018.011,0,.046-.014h0l.029-.009h.005l.035-.01.025-.008.043-.013h0l.027-.009h0l.033-.01.006,0,.027-.009h0l.024-.008.007,0,.043-.014.059-.019.035-.012.1-.033,0,0,.065-.022.066-.024.148-.054.058-.021.006,0,.064-.024q.136-.052.27-.107l.2-.084q.166-.071.33-.147l.131-.062q.163-.077.323-.16l.191-.1.127-.068q.347-.19.681-.4l.121-.077.18-.118.119-.08.118-.082q.352-.246.686-.515l.166-.135q.137-.114.271-.232a12.976,12.976,0,0,0,4.432-9.781q0-.266-.011-.529C314.615,1472.89,314.614,1472.869,314.613,1472.849Z" transform="translate(-278.054 -1450.234)" fill="url(#linear-gradient-10)"/>
          <path id="Pfad_48" data-name="Pfad 48" d="M518.25,1460.678a13.016,13.016,0,0,0-12.7,15.735h0a10.61,10.61,0,0,0,1.492,3.881,12.612,12.612,0,0,0,1.206,1.619,14.682,14.682,0,0,0,1.313,1.32l1.6-1.607-.008-.007h0l5.836-5.851,2.2-2.21-3.767-3.757-4.766,4.779a7.743,7.743,0,1,1,6.045,6.571l-3.84,3.85-.331.332-.02.02q.3.148.606.28h0l0,0h0a12.958,12.958,0,0,0,5.139,1.055h.018a13.007,13.007,0,0,0-.036-26.014Zm-8.363,21.812,0,0,0,0Zm-.02-.02.011.011.011.011.014.014Z" transform="translate(-451.178 -1450.43)" fill="url(#linear-gradient-11)"/>
          <path id="Pfad_49" data-name="Pfad 49" d="M303.3,1409.667a23.118,23.118,0,0,0-13.849,4.581q-.652.485-1.267,1.014-.314.269-.618.549l-.011.01-6.279,6.279-5.639-5.639-.44-.44-.421-.421h0l.421.421.44.44.928.928a23.38,23.38,0,0,0-1.786-1.786h0l0,0q-.83-.744-1.73-1.408-.828-.611-1.711-1.15a23.222,23.222,0,1,0,2.03,38.3l7.626-7.44h0l.293-.285h0l.027-.028.345.351,4.206,4.278a23.387,23.387,0,0,0,1.774,1.809l.038.035a23.221,23.221,0,1,0,15.626-40.4Zm-22.8,18.818v0Zm-.01.052Zm0,0Zm0,0Zm0,0h0Zm0,0h0Zm0,.009Zm0,0h0Zm0,0Zm0,.013Zm0,0Zm0,0h0Zm22.819,22.494a18.067,18.067,0,0,1-11.859-4.414l-.189-.166a18.218,18.218,0,0,1-1.941-2.013l-7.961-8.143h0l-.189.191-8.4,8.566h0l-.337.344-.759.774h0l0,0-.006.006h0c-.086.079-.171.159-.258.238a18.143,18.143,0,1,1,1.643-25.31l4.424,4.437.015-.015.73.75.506.52h0l1.757,1.8h0l.868.892.785-.806,3.078-3.161,4.351-4.467,1.562-1.6a18.138,18.138,0,1,1,12.188,31.57Z" transform="translate(-236.053 -1409.667)" fill="url(#linear-gradient-12)"/>
        </g>
      </g>
    </g>
  </svg>
